<?xml version="1.0" standalone="no"?>
<!DOCTYPE svg PUBLIC "-//W3C//DTD SVG 20010904//EN"
 "http://www.w3.org/TR/2001/REC-SVG-20010904/DTD/svg10.dtd">
<svg version="1.0" xmlns="http://www.w3.org/2000/svg"
 width="400.000000pt" height="400.000000pt" viewBox="0 0 400.000000 400.000000"
 preserveAspectRatio="xMidYMid meet">
<metadata>
Created by potrace 1.11, written by Peter Selinger 2001-2013
</metadata>
<g transform="translate(0.000000,400.000000) scale(0.100000,-0.100000)"
fill="#000000" stroke="none">
<path d="M1837 3338 c-10 -5 -24 -7 -32 -4 -8 3 -15 2 -17 -2 -2 -4 -23 -17
-48 -29 -55 -27 -93 -56 -143 -108 -61 -65 -67 -71 -67 -79 0 -4 -9 -20 -20
-36 -11 -15 -17 -30 -13 -34 3 -3 1 -6 -5 -6 -9 0 -21 -30 -38 -92 -1 -5 -3
-9 -4 -10 -8 -8 -13 -64 -14 -152 -1 -72 2 -100 12 -104 6 -2 10 -7 7 -12 -3
-4 6 -24 20 -44 14 -20 25 -40 25 -44 0 -4 -4 -1 -9 7 -7 11 -11 9 -21 -8 -18
-35 -43 -61 -52 -55 -4 3 -8 -1 -8 -8 0 -7 -15 -29 -33 -49 -17 -20 -39 -47
-47 -60 -8 -12 -23 -31 -32 -41 -10 -10 -15 -18 -10 -18 4 0 3 -4 -3 -8 -15
-11 -55 -70 -55 -82 0 -5 -3 -10 -7 -10 -11 0 -43 -58 -43 -76 0 -9 -4 -13 -9
-10 -9 6 -21 -14 -27 -43 -1 -8 -7 -17 -11 -20 -12 -8 -144 -276 -158 -321
-16 -52 -28 -98 -28 -110 0 -8 -3 -19 -7 -25 -9 -12 -6 -165 4 -215 12 -61 59
-189 68 -184 4 3 5 -2 2 -10 -3 -9 -2 -16 3 -16 5 0 17 -13 26 -30 23 -39 81
-100 96 -100 6 0 11 -4 11 -10 0 -5 7 -10 16 -10 8 0 13 -4 10 -9 -3 -5 5 -12
19 -15 14 -4 25 -10 25 -15 0 -5 16 -15 35 -21 31 -10 34 -14 23 -28 -11 -13
-11 -14 2 -7 13 8 13 6 2 -7 -7 -9 -22 -15 -33 -13 -10 2 -19 0 -19 -5 0 -5
-7 -7 -15 -4 -39 15 -195 -98 -195 -140 0 -9 -4 -16 -9 -16 -21 0 -34 -151
-19 -209 12 -42 70 -117 98 -126 10 -3 19 -14 19 -23 0 -9 1 -42 1 -72 3 -95
-3 -180 -12 -180 -5 0 -7 -4 -4 -9 6 -10 -31 -131 -45 -146 -5 -5 -9 -13 -9
-17 0 -4 395 -7 878 -6 506 2 876 7 874 12 -2 5 2 13 10 17 7 5 9 9 3 9 -5 0
-10 11 -10 25 0 14 4 25 8 25 5 0 5 6 1 12 -13 20 -12 48 2 48 6 0 15 -16 18
-35 4 -19 11 -35 16 -35 6 0 9 -3 8 -7 -3 -15 22 -64 35 -69 7 -2 79 -3 160
-2 l146 3 -29 44 c-17 24 -28 46 -26 49 3 2 0 10 -7 18 -32 36 -39 46 -33 51
3 3 -1 18 -9 32 -7 14 -22 49 -31 76 -10 28 -20 55 -24 60 -3 6 -5 20 -4 32 0
13 -2 23 -6 23 -4 0 -8 10 -7 23 0 12 -3 35 -6 51 -3 16 -4 26 -1 23 8 -8 84
75 78 85 -3 4 -1 8 3 8 10 0 30 51 38 98 8 46 8 46 5 57 -1 6 -3 15 -4 20 -10
61 -19 95 -25 95 -4 0 -13 16 -20 35 -7 19 -17 33 -22 30 -5 -4 -9 -1 -9 6 0
29 -134 129 -173 129 -10 0 -17 4 -17 8 0 8 -12 10 -75 13 l-35 2 36 36 c33
33 102 144 108 174 2 6 6 20 9 30 14 36 18 52 24 96 8 59 7 223 -1 281 -14
100 -18 120 -25 120 -4 0 -8 8 -9 18 -4 34 -8 52 -15 58 -4 4 -7 16 -7 26 0
10 -4 18 -8 18 -5 0 -9 6 -10 13 -3 37 -8 53 -19 65 -7 7 -13 20 -13 28 0 8
-4 14 -9 14 -5 0 -12 13 -16 30 -4 17 -10 30 -14 30 -4 0 -13 16 -21 35 -8 19
-17 35 -22 35 -4 0 -8 4 -8 9 0 5 -19 37 -42 72 -24 34 -47 69 -53 78 -5 9
-19 26 -30 38 -11 11 -38 42 -60 68 -57 67 -113 123 -181 180 -32 28 -60 53
-62 58 -2 4 -10 7 -18 7 -8 0 -14 5 -14 11 0 5 -4 7 -10 4 -5 -3 -10 -2 -10 3
0 6 -31 25 -69 43 -54 26 -67 37 -63 51 2 10 8 18 12 18 5 0 7 8 5 18 -1 9 2
22 7 29 14 18 16 193 2 240 -6 23 -10 44 -8 46 3 2 -2 10 -11 17 -8 7 -15 18
-15 25 0 18 -92 109 -115 113 -11 2 -22 8 -25 12 -3 4 -19 10 -37 13 -17 3
-36 8 -42 11 -5 4 -13 1 -17 -5 -4 -7 -9 -8 -13 -1 -4 7 -12 7 -24 0z"/>
</g>
</svg>
